# xmcd
#
# Track frame offsets: 
#        150
#        17211
#        40317
#        58549
#        77429
#        92170
#        109007
#        124932
#        143420
#        164868
#
# Disc length: 2574 seconds
#
# Revision: 0
# Processed by: cddbd v1.5.1PL2 Copyright (c) Steve Scherf et al.
# Submitted via: ExactAudioCopy v0.95b3
#
DISCID=800a0c0a
DTITLE=Shane Alexander - The Middle Way
DYEAR=2005
DGENRE=Alternative Country
TTITLE0=The Open Road
TTITLE1=Keep the Dream Alive
TTITLE2=Last Day on Earth
TTITLE3=Black Tar
TTITLE4=Leave You Alone
TTITLE5=Valentine
TTITLE6=Birthday
TTITLE7=Living Out Loud
TTITLE8=One Track Mind
TTITLE9=I'm Not the One
EXTD=
EXTT0=
EXTT1=
EXTT2=
EXTT3=
EXTT4=
EXTT5=
EXTT6=
EXTT7=
EXTT8=
EXTT9=
PLAYORDER=
